<svg width="167" height="113" fill="none" xmlns="http://www.w3.org/2000/svg"><path fill-rule="evenodd" clip-rule="evenodd" d="M46 88h83a7 7 0 100-14s-6-3.134-6-7 3.952-7 8.826-7H142a7 7 0 100-14h-22a7 7 0 100-14h40a7 7 0 100-14H62a7 7 0 100 14H22a7 7 0 100 14h25a7 7 0 110 14H7a7 7 0 100 14h39a7 7 0 100 14zm107-35a7 7 0 1014 0 7 7 0 00-14 0z" fill="#F3F7FF"/><path d="M51 82.5V2l1-2h47.5l17 16.5.5 68H55l-4-2z" fill="#fff"/><path fill="#E8F0FE" d="M70 72h10v13H70zM89 62h10v23H89zM106 51h10v34h-10zM125 39h10v46h-10z"/><path d="M134.281 35.879h-11a1.72 1.72 0 00-1.719 1.718v8.68a1.72 1.72 0 003.438 0v-6.96h7.562v45.245H125V59.169a1.719 1.719 0 10-3.438 0v25.395h-3.437V48.983c0-.949-.769-1.718-1.719-1.718h-11c-.949 0-1.718.77-1.718 1.718v35.578h-3.438V61.017c0-.95-.77-1.72-1.719-1.72h-11c-.949 0-1.719.77-1.719 1.72v23.547h-3.437V70.876c0-.95-.77-1.719-1.719-1.719h-11c-.949 0-1.719.77-1.719 1.719v13.686h-14.78a1.72 1.72 0 01-1.72-1.72V5.157a1.72 1.72 0 011.72-1.718h44.339v11.344a5.162 5.162 0 005.156 5.156h11.344v21.14a1.718 1.718 0 103.437 0V18.22a1.72 1.72 0 00-.503-1.215l-16.5-16.5A1.72 1.72 0 0099.214 0H53.157A5.162 5.162 0 0048 5.156v77.688A5.162 5.162 0 0053.156 88h81.125c.95 0 1.719-.77 1.719-1.719V37.597c0-.949-.769-1.718-1.719-1.718zm-33.348-30.01L111.565 16.5h-8.913a1.72 1.72 0 01-1.719-1.718V5.868zM78.937 84.562h-7.562V72.596h7.563v11.966zm17.876 0H89.25V62.733h7.563v21.828zm17.875 0h-7.563v-33.86h7.563v33.86z" fill="#4987FD"/><path d="M124.496 51.188a1.724 1.724 0 00-1.215-.504c-.452 0-.895.183-1.215.504a1.73 1.73 0 00-.504 1.215c0 .452.184.895.504 1.215.32.32.763.504 1.215.504a1.73 1.73 0 001.215-.504c.32-.32.504-.763.504-1.215a1.73 1.73 0 00-.504-1.215zM73.021 9.407c-.95 0-1.719.77-1.719 1.718v3.092c-7.911.859-14.09 7.58-14.09 15.716 0 8.716 7.092 15.808 15.809 15.808 8.136 0 14.857-6.178 15.715-14.09h3.092c.95 0 1.719-.77 1.719-1.718 0-11.319-9.208-20.526-20.526-20.526zm0 32.896c-6.821 0-12.37-5.55-12.37-12.37 0-6.238 4.64-11.413 10.651-12.252v12.251c0 .95.77 1.72 1.719 1.72h12.252c-.84 6.01-6.014 10.651-12.252 10.651zm1.719-14.09V12.93c8.053.808 14.475 7.231 15.284 15.284H74.74zM91.828 50.574H59a1.719 1.719 0 000 3.438h32.828a1.719 1.719 0 000-3.438zM70 58.867H59a1.719 1.719 0 000 3.438h11a1.719 1.719 0 000-3.438zM79.823 59.37a1.732 1.732 0 00-1.215-.503c-.454 0-.896.184-1.216.504-.321.32-.503.763-.503 1.215a1.724 1.724 0 001.719 1.719c.451 0 .895-.184 1.215-.504.32-.32.503-.763.503-1.215 0-.452-.184-.895-.503-1.215z" fill="#4987FD"/><circle cx="130" cy="82" r="22.788" transform="rotate(159.228 130 82)" fill="#fff" stroke="#4987FD" stroke-width="2.5"/><path d="M131.899 72v8.612h7.893v2.723h-7.893v8.672h-2.831v-8.672h-7.854v-2.723h7.854V72h2.831z" fill="#4987FD"/></svg>