<svg width="341" height="49" viewBox="0 0 341 49" fill="none" xmlns="http://www.w3.org/2000/svg">
	<path d="M57.1943 2.42623V7.80328C57.1943 9.2459 56.6013 9.77049 55.0859 9.77049H35.6489L25.2386 45.3115C24.8433 46.6885 24.1185 47.4098 22.669 47.4098H15.2236C13.7741 47.4098 13.0493 46.6885 12.654 45.3115L0.135267 2.55738C-0.260062 1.2459 0.201155 0.52459 1.65069 0.52459H9.82081C11.2703 0.52459 11.8633 1.31148 12.2587 2.55738L17.4638 21.8361C18.518 25.7049 19.1769 33.0492 19.1769 33.0492C19.1769 33.0492 20.0993 25.7049 21.0877 21.8361L26.3587 2.55738C26.6881 1.2459 27.347 0.52459 28.7966 0.52459H55.0859C56.5354 0.52459 57.1943 0.983607 57.1943 2.42623ZM55.3494 25.7049V20.6557C55.3494 19.2131 54.7565 18.7541 53.241 18.7541H37.4279C36.0442 18.7541 35.2536 19.2787 34.8583 20.6557L33.3428 25.8361C32.9475 27.2131 33.4087 27.6721 34.7924 27.6721H53.3069C54.7564 27.7377 55.3494 27.1475 55.3494 25.7049ZM55.0859 38.0328H31.7615C30.312 38.0328 29.5213 38.5574 29.126 40L27.5447 45.3771C27.1494 46.8197 27.6106 47.2787 29.0601 47.2787H55.0859C56.5354 47.2787 57.1943 46.7541 57.1943 45.3115V39.9344C57.1943 38.5574 56.5354 38.0328 55.0859 38.0328ZM92.6421 0.52459H85.8556C84.4061 0.52459 83.879 1.11475 83.879 2.55738V25.9672C83.1542 24.3279 82.2976 22.2295 81.4411 20.7869L69.713 1.31148C69.4495 0.786885 68.8565 0.459016 67.9999 0.459016H61.2135C59.7639 0.459016 59.2368 1.04918 59.2368 2.4918V45.1803C59.2368 46.623 59.7639 47.2131 61.2135 47.2131H67.9999C69.4495 47.2131 69.9107 46.623 69.9107 45.1803V21.8361C70.7014 23.7377 71.6897 26.1639 72.8757 28.0656L83.9449 46.3607C84.3402 47.082 84.8014 47.3443 85.7897 47.3443H92.5762C94.0257 47.3443 94.4869 46.7541 94.4869 45.3115V2.55738C94.5528 1.11475 94.0916 0.52459 92.6421 0.52459ZM131.977 35.541C131.977 41.4426 127.299 47.3443 114.253 47.3443H98.3743C97.1225 47.3443 96.6612 46.6229 96.6612 45.2459V2.55738C96.6612 1.11475 97.1883 0.52459 98.6379 0.52459H114.253C127.233 0.52459 131.977 6.36065 131.977 12.3279V35.541ZM120.513 14.2951C120.513 11.1475 117.614 9.83607 114.187 9.83607H107.994V38.0984H114.187C117.548 38.0984 120.513 36.7869 120.513 33.6393V14.2951ZM151.612 47.8689C164.592 47.8689 169.336 42.0328 169.336 36.0656V2.55738C169.336 1.11475 168.875 0.52459 167.425 0.52459H159.98C158.53 0.52459 158.003 1.11475 158.003 2.55738V34.0984C158.003 37.2459 155.104 38.5574 151.678 38.5574C148.317 38.5574 145.484 37.2459 145.484 34.0984V2.55738C145.484 1.11475 145.023 0.52459 143.574 0.52459H136.128C134.679 0.52459 134.152 1.11475 134.152 2.55738V36.1311C133.954 42.0328 138.632 47.8689 151.612 47.8689ZM197.338 20.8525L185.742 16.918C184.951 16.6557 183.502 15.8033 183.502 13.9672V13.3115C183.502 10.1639 185.808 8.98361 188.97 8.98361C192.133 8.98361 194.373 10.1639 194.373 13.3115V14.3607C194.373 15.8033 194.834 16.459 196.284 16.459H203.466C204.915 16.459 205.442 15.8689 205.442 14.3607V11.8033C205.442 5.90164 201.555 0 188.773 0C175.99 0 172.367 5.83607 172.367 11.8033V15.8033C172.367 19.8033 175.266 23.6721 178.824 24.9836L188.773 28.7213C191.408 29.7049 194.703 30.8852 194.703 33.3115V34.6885C194.703 37.8361 191.935 39.0164 188.575 39.0164C185.215 39.0164 182.513 37.8361 182.513 34.6885V31.6066C182.513 30.1639 182.052 29.5082 180.603 29.5082H173.421C171.971 29.5082 171.444 30.0984 171.444 31.6066V36.1967C171.444 42.0984 175.793 48 188.839 48C201.819 48 206.035 42.1639 206.035 36.1967V31.2787C205.97 26.1639 202.412 22.5574 197.338 20.8525Z" fill="#1577EB" />
	<path d="M242.905 32.085C254.014 32.085 260.431 27.531 260.431 20.286V12.903C260.431 5.658 254.014 1.104 242.905 1.104H228.001C226.621 1.104 226 1.725 226 3.174V45.954C226 47.403 226.621 48.024 228.001 48.024H235.453C236.833 48.024 237.385 47.403 237.385 45.954V32.085H242.905ZM242.905 10.419C246.769 10.419 249.184 12.075 249.184 14.904V18.285C249.184 21.114 246.769 22.77 242.905 22.77H237.385V10.419H242.905Z" fill="#061440" />
	<path d="M281.887 48.576C293.134 48.576 299.551 44.022 299.551 36.777V12.351C299.551 5.106 293.134 0.552002 281.887 0.552002C270.778 0.552002 264.292 5.106 264.292 12.351V36.777C264.292 44.022 270.778 48.576 281.887 48.576ZM281.887 39.261C278.023 39.261 275.677 37.605 275.677 34.776V14.352C275.677 11.523 278.023 9.867 281.887 9.867C285.751 9.867 288.166 11.523 288.166 14.352V34.776C288.166 37.605 285.751 39.261 281.887 39.261Z" fill="#061440" />
	<path d="M328.525 14.352C328.525 15.801 329.077 16.422 330.457 16.422H337.633C339.013 16.422 339.634 15.801 339.634 14.352V11.799C339.634 4.347 333.838 0 323.143 0C312.379 0 306.652 4.14 306.652 11.799V15.801C306.652 19.665 309.481 23.598 313.069 24.978L323.005 28.704C327.904 30.567 328.939 31.671 328.939 33.327V34.707C328.939 37.536 326.731 39.054 322.798 39.054C318.934 39.054 316.726 37.536 316.726 34.707V31.602C316.726 30.153 316.174 29.532 314.794 29.532H307.618C306.238 29.532 305.617 30.153 305.617 31.602V36.225C305.617 43.608 311.827 48.024 322.867 48.024C333.907 48.024 340.117 43.608 340.117 36.225V31.326C340.117 26.565 337.012 22.77 331.492 20.907L319.9 16.974C318.589 16.491 317.692 15.387 317.692 14.007V13.317C317.692 10.488 319.555 8.97 323.143 8.97C326.731 8.97 328.525 10.488 328.525 13.317V14.352Z" fill="#061440" />
</svg>
